<?xml version="1.0" standalone="no"?>
<!DOCTYPE svg PUBLIC "-//W3C//DTD SVG 20010904//EN"
 "http://www.w3.org/TR/2001/REC-SVG-20010904/DTD/svg10.dtd">
<svg version="1.0" xmlns="http://www.w3.org/2000/svg"
 width="512.000000pt" height="512.000000pt" viewBox="0 0 512.000000 512.000000"
 preserveAspectRatio="xMidYMid meet" fill="#000000">

<g transform="translate(0.000000,512.000000) scale(0.100000,-0.100000)">
<path d="M1845 4297 c-73 -41 -104 -131 -69 -200 9 -18 354 -371 767 -784
l752 -753 -752 -752 c-413 -414 -758 -767 -767 -785 -22 -44 -20 -91 7 -138
41 -73 131 -104 200 -69 44 22 1654 1630 1678 1676 23 45 24 88 3 131 -22 44
-1630 1654 -1676 1678 -49 25 -94 24 -143 -4z"/>
</g>
</svg>
