<svg width="33" height="32" viewBox="0 0 33 32" fill="#2D2A34" xmlns="http://www.w3.org/2000/svg">
<path fill-rule="evenodd" clip-rule="evenodd" d="M16.2373 5C10.1622 5 5.2373 9.92487 5.2373 16C5.2373 22.0751 10.1622 27 16.2373 27C22.3124 27 27.2373 22.0751 27.2373 16C27.2373 9.92487 22.3124 5 16.2373 5ZM3.2373 16C3.2373 8.8203 9.0576 3 16.2373 3C23.417 3 29.2373 8.8203 29.2373 16C29.2373 23.1797 23.417 29 16.2373 29C9.0576 29 3.2373 23.1797 3.2373 16Z" />
<path fill-rule="evenodd" clip-rule="evenodd" d="M20.9444 11.2929C21.3349 11.6834 21.3349 12.3166 20.9444 12.7071L12.9444 20.7071C12.5539 21.0976 11.9207 21.0976 11.5302 20.7071C11.1397 20.3166 11.1397 19.6834 11.5302 19.2929L19.5302 11.2929C19.9207 10.9024 20.5539 10.9024 20.9444 11.2929Z" />
<path fill-rule="evenodd" clip-rule="evenodd" d="M11.5302 11.2929C11.9207 10.9024 12.5539 10.9024 12.9444 11.2929L20.9444 19.2929C21.3349 19.6834 21.3349 20.3166 20.9444 20.7071C20.5539 21.0976 19.9207 21.0976 19.5302 20.7071L11.5302 12.7071C11.1397 12.3166 11.1397 11.6834 11.5302 11.2929Z" />
</svg>
