<svg width="33" height="32" viewBox="0 0 33 32" fill="#2D2A34" xmlns="http://www.w3.org/2000/svg">
<path fill-rule="evenodd" clip-rule="evenodd" d="M16.1188 5C9.99862 5 5.03728 9.92487 5.03728 16C5.03728 22.0751 9.99862 27 16.1188 27C22.2389 27 27.2002 22.0751 27.2002 16C27.2002 9.92487 22.2389 5 16.1188 5ZM3.02246 16C3.02246 8.8203 8.88587 3 16.1188 3C23.3516 3 29.2151 8.8203 29.2151 16C29.2151 23.1797 23.3516 29 16.1188 29C8.88587 29 3.02246 23.1797 3.02246 16Z" />
<path d="M16.1185 24C16.9531 24 17.6296 23.3284 17.6296 22.5C17.6296 21.6716 16.9531 21 16.1185 21C15.284 21 14.6074 21.6716 14.6074 22.5C14.6074 23.3284 15.284 24 16.1185 24Z" />
<path fill-rule="evenodd" clip-rule="evenodd" d="M14.3835 9.34254C15.2118 9.00195 16.1233 8.91283 17.0027 9.08647C17.8821 9.2601 18.6898 9.68869 19.3238 10.318C19.9578 10.9474 20.3896 11.7492 20.5645 12.6221C20.7394 13.495 20.6497 14.3998 20.3065 15.2221C19.9634 16.0443 19.3824 16.7471 18.6369 17.2416C18.1747 17.5482 17.6622 17.7661 17.1257 17.8875V18C17.1257 18.5523 16.6747 19 16.1183 19C15.5619 19 15.1109 18.5523 15.1109 18V17C15.1109 16.7348 15.217 16.4804 15.4059 16.2929C15.5949 16.1054 15.8511 16 16.1183 16C16.6164 16 17.1033 15.8534 17.5175 15.5787C17.9317 15.304 18.2545 14.9135 18.4451 14.4567C18.6357 13.9999 18.6856 13.4972 18.5884 13.0123C18.4912 12.5273 18.2514 12.0819 17.8992 11.7322C17.5469 11.3826 17.0982 11.1445 16.6096 11.048C16.1211 10.9516 15.6147 11.0011 15.1545 11.1903C14.6943 11.3795 14.301 11.7 14.0242 12.1111C13.7475 12.5222 13.5998 13.0055 13.5998 13.5C13.5998 14.0523 13.1487 14.5 12.5924 14.5C12.036 14.5 11.585 14.0523 11.585 13.5C11.585 12.61 11.8508 11.74 12.349 10.9999C12.8471 10.2599 13.5551 9.68314 14.3835 9.34254Z" />
</svg>
