<svg width="33" height="32" viewBox="0 0 33 32" fill="#2D2A34" xmlns="http://www.w3.org/2000/svg">
<path fill-rule="evenodd" clip-rule="evenodd" d="M3.11914 7C3.11914 5.89543 4.01457 5 5.11914 5H27.1191C28.2237 5 29.1191 5.89543 29.1191 7V25C29.1191 26.1046 28.2237 27 27.1191 27H5.11914C4.01457 27 3.11914 26.1046 3.11914 25V7ZM27.1191 7H5.11914V25H27.1191V7Z" />
<path fill-rule="evenodd" clip-rule="evenodd" d="M10.3467 13.5692C10.5913 13.4668 10.8539 13.4141 11.1191 13.4141C11.3844 13.4141 11.6469 13.4668 11.8916 13.5692C12.1348 13.6711 12.3555 13.82 12.541 14.0075L18.1192 19.5857L18.1245 19.5803L20.6974 17.0074C20.8828 16.82 21.1035 16.6711 21.3467 16.5692C21.5913 16.4668 21.8539 16.4141 22.1191 16.4141C22.3844 16.4141 22.6469 16.4668 22.8916 16.5692C23.1348 16.6711 23.3554 16.82 23.5409 17.0074L28.8262 22.2928C29.2168 22.6833 29.2168 23.3165 28.8262 23.707C28.4357 24.0975 27.8026 24.0975 27.412 23.707L22.1191 18.4141L22.1138 18.4195L19.5441 20.9891C19.5431 20.9901 19.542 20.9912 19.541 20.9923C19.3555 21.1797 19.1348 21.3287 18.8916 21.4305C18.6469 21.533 18.3844 21.5857 18.1191 21.5857C17.8539 21.5857 17.5913 21.533 17.3467 21.4305C17.1034 21.3287 16.8827 21.1797 16.6973 20.9923L11.1191 15.4141L11.1138 15.4195L4.82625 21.707C4.43572 22.0975 3.80256 22.0975 3.41203 21.707C3.02151 21.3165 3.02151 20.6833 3.41203 20.2928L9.69726 14.0076C9.88272 13.8201 10.1034 13.6711 10.3467 13.5692Z" />
<path d="M19.6191 14C20.4476 14 21.1191 13.3284 21.1191 12.5C21.1191 11.6716 20.4476 11 19.6191 11C18.7907 11 18.1191 11.6716 18.1191 12.5C18.1191 13.3284 18.7907 14 19.6191 14Z" />
</svg>
