<svg width="33" height="32" viewBox="0 0 33 32" fill="none" xmlns="http://www.w3.org/2000/svg">
<path fill-rule="evenodd" clip-rule="evenodd" d="M3.5 7C3.5 5.89543 4.39543 5 5.5 5H27.5C28.6046 5 29.5 5.89543 29.5 7V25C29.5 26.1046 28.6046 27 27.5 27H5.5C4.39543 27 3.5 26.1046 3.5 25V7ZM27.5 7H5.5V25H27.5V7Z" />
<path fill-rule="evenodd" clip-rule="evenodd" d="M10.7276 13.5694C10.9722 13.4669 11.2348 13.4142 11.5 13.4142C11.7652 13.4142 12.0278 13.4669 12.2724 13.5694C12.5157 13.6712 12.7364 13.8202 12.9218 14.0076L18.5 19.5858L18.5054 19.5804L21.0783 17.0075C21.2637 16.8201 21.4844 16.6712 21.7276 16.5694C21.9722 16.4669 22.2348 16.4142 22.5 16.4142C22.7652 16.4142 23.0278 16.4669 23.2724 16.5694C23.5156 16.6712 23.7363 16.8201 23.9217 17.0075L29.2071 22.2929C29.5976 22.6834 29.5976 23.3166 29.2071 23.7071C28.8166 24.0976 28.1834 24.0976 27.7929 23.7071L22.5 18.4142L22.4946 18.4196L19.925 20.9892C19.924 20.9903 19.9229 20.9913 19.9218 20.9924C19.7364 21.1798 19.5157 21.3288 19.2724 21.4307C19.0278 21.5331 18.7652 21.5858 18.5 21.5858C18.2348 21.5858 17.9722 21.5331 17.7276 21.4307C17.4843 21.3288 17.2636 21.1798 17.0782 20.9924L11.5 15.4142L11.4946 15.4196L5.20711 21.7071C4.81658 22.0976 4.18342 22.0976 3.79289 21.7071C3.40237 21.3166 3.40237 20.6834 3.79289 20.2929L10.0781 14.0077C10.2636 13.8202 10.4843 13.6712 10.7276 13.5694Z" />
<path d="M20 14C20.8284 14 21.5 13.3284 21.5 12.5C21.5 11.6716 20.8284 11 20 11C19.1716 11 18.5 11.6716 18.5 12.5C18.5 13.3284 19.1716 14 20 14Z" fill="#2D2A34"/>
</svg>
