<svg width="33" height="32" viewBox="0 0 33 32" fill="#2D2A34" xmlns="http://www.w3.org/2000/svg">
<path fill-rule="evenodd" clip-rule="evenodd" d="M16.3941 4C14.1686 4 12.3644 5.79086 12.3644 8V16C12.3644 18.2091 14.1686 20 16.3941 20C18.6196 20 20.4237 18.2091 20.4237 16V8C20.4237 5.79086 18.6196 4 16.3941 4ZM10.3496 8C10.3496 4.68629 13.0558 2 16.3941 2C19.7323 2 22.4385 4.68629 22.4385 8V16C22.4385 19.3137 19.7323 22 16.3941 22C13.0558 22 10.3496 19.3137 10.3496 16V8Z" />
<path fill-rule="evenodd" clip-rule="evenodd" d="M16.3941 24C16.9505 24 17.4015 24.4477 17.4015 25V29C17.4015 29.5523 16.9505 30 16.3941 30C15.8378 30 15.3867 29.5523 15.3867 29V25C15.3867 24.4477 15.8378 24 16.3941 24Z" />
<path fill-rule="evenodd" clip-rule="evenodd" d="M7.25919 16.007C7.8117 15.9421 8.31263 16.3341 8.37804 16.8825C8.61041 18.8309 9.55482 20.6268 11.0323 21.93C12.5097 23.2332 14.4175 23.953 16.3939 23.953C18.3704 23.953 20.2781 23.2332 21.7556 21.93C23.233 20.6268 24.1774 18.8309 24.4098 16.8825C24.4752 16.3341 24.9761 15.9421 25.5287 16.007C26.0812 16.072 26.476 16.5692 26.4106 17.1177C26.1203 19.5523 24.9401 21.7966 23.0939 23.4251C21.2477 25.0535 18.8637 25.953 16.3939 25.953C13.9241 25.953 11.5401 25.0535 9.69393 23.4251C7.84771 21.7966 6.66756 19.5523 6.3772 17.1177C6.31179 16.5692 6.70667 16.072 7.25919 16.007Z" />
</svg>
