<svg width="16" height="16" viewBox="0 0 16 16" xmlns="http://www.w3.org/2000/svg">
<path fill-rule="evenodd" clip-rule="evenodd" d="M10.1138 1.78462C10.2361 1.73341 10.3674 1.70703 10.5 1.70703C10.6326 1.70703 10.7639 1.73341 10.8862 1.78462C11.0078 1.83554 11.1182 1.91 11.2109 2.00371L13.9962 4.78907C14.0899 4.88178 14.1644 4.99212 14.2153 5.11373C14.2665 5.23605 14.2929 5.36733 14.2929 5.49995C14.2929 5.63256 14.2665 5.76384 14.2153 5.88616C14.1644 6.00776 14.09 6.11809 13.9963 6.2108L6.35355 13.8535C6.25979 13.9473 6.13261 13.9999 6 13.9999H3C2.73478 13.9999 2.48043 13.8946 2.29289 13.7071C2.10536 13.5195 2 13.2652 2 12.9999V10.2069M10.1138 1.78462C9.99216 1.83555 9.88181 1.91002 9.78909 2.00375L10.1138 1.78462ZM3 10.2071V12.9999H5.79289L13.2929 5.49993L13.2902 5.49726L10.5 2.70704L10.4973 2.70976L3 10.2071Z" fill="#2D2A34"/>
<path fill-rule="evenodd" clip-rule="evenodd" d="M8.14645 3.64645C8.34171 3.45118 8.65829 3.45118 8.85355 3.64645L12.3536 7.14645C12.5488 7.34171 12.5488 7.65829 12.3536 7.85355C12.1583 8.04882 11.8417 8.04882 11.6464 7.85355L8.14645 4.35355C7.95118 4.15829 7.95118 3.84171 8.14645 3.64645Z" fill="black"/>
<path fill-rule="evenodd" clip-rule="evenodd" d="M2.1777 9.6777C2.37296 9.48243 2.68954 9.48243 2.8848 9.6777L6.20711 13H13.5C13.7761 13 14 13.2239 14 13.5C14 13.7761 13.7761 14 13.5 14H6C5.86739 14 5.74021 13.9473 5.64645 13.8536L2.1777 10.3848C1.98243 10.1895 1.98243 9.87296 2.1777 9.6777Z" fill="black"/>
<path fill-rule="evenodd" clip-rule="evenodd" d="M10.6036 5.39645C10.7988 5.59171 10.7988 5.90829 10.6036 6.10355L4.60355 12.1036C4.40829 12.2988 4.09171 12.2988 3.89645 12.1036C3.70118 11.9083 3.70118 11.5917 3.89645 11.3964L9.89645 5.39645C10.0917 5.20118 10.4083 5.20118 10.6036 5.39645Z" fill="black"/>
</svg>
