<svg width="19" height="16" viewBox="0 0 19 16" fill="#2D2A34" xmlns="http://www.w3.org/2000/svg">
<path d="M4.1135 15.3207C2.85427 15.3207 1.84688 14.859 1.09134 13.9355C0.363779 12.9841 0 11.8648 0 10.5776C0 9.51423 0.195881 8.52083 0.587643 7.59739C0.979406 6.67395 1.46911 5.83446 2.05675 5.07892C2.67238 4.32338 3.31599 3.66578 3.98758 3.10611C4.68716 2.51847 5.33076 2.02877 5.91841 1.63701C6.50605 1.21726 6.98176 0.909448 7.34554 0.713567C7.7373 0.517686 7.91919 0.419745 7.89121 0.419745L8.85662 1.72096C8.60478 1.83289 8.26898 2.05675 7.84924 2.39255C7.42949 2.70036 7.00975 3.07813 6.59 3.52586C6.19824 3.97359 5.84845 4.46329 5.54064 4.99497C5.23282 5.49866 5.07892 5.98837 5.07892 6.46408C5.07892 6.74391 5.24682 7.02374 5.58261 7.30357C5.91841 7.55541 6.28219 7.86323 6.67395 8.22701C7.06571 8.5628 7.42949 8.98255 7.76529 9.48624C8.10108 9.96195 8.26898 10.5496 8.26898 11.2492C8.26898 11.8648 8.14306 12.4245 7.89121 12.9282C7.66735 13.4318 7.35953 13.8656 6.96777 14.2294C6.60399 14.5652 6.17026 14.831 5.66656 15.0269C5.16287 15.2228 4.64518 15.3207 4.1135 15.3207ZM14.4392 15.4047C13.7956 15.4047 13.208 15.2647 12.6763 14.9849C12.1446 14.7051 11.6829 14.3273 11.2911 13.8516C10.8994 13.3759 10.5916 12.8302 10.3677 12.2146C10.1718 11.571 10.0739 10.8854 10.0739 10.1578C10.0739 8.70272 10.3817 7.35953 10.9973 6.12828C11.6409 4.86905 12.3405 3.7917 13.0961 2.89624C13.9915 1.83289 15.0129 0.867474 16.1602 0L17.3775 1.13331C17.1256 1.30121 16.8178 1.56705 16.454 1.93083C16.1182 2.29461 15.7964 2.72834 15.4886 3.23204C15.2088 3.70775 14.9569 4.21144 14.7331 4.74312C14.5372 5.2748 14.4392 5.79248 14.4392 6.29618C14.4392 6.63198 14.6491 6.91181 15.0689 7.13567C15.4886 7.35953 15.9503 7.63936 16.454 7.97516C16.9577 8.31096 17.4194 8.74469 17.8392 9.27637C18.2589 9.78006 18.4688 10.4936 18.4688 11.4171C18.4688 11.9767 18.3569 12.4944 18.133 12.9701C17.9091 13.4458 17.6013 13.8656 17.2096 14.2294C16.8458 14.5931 16.412 14.887 15.9083 15.1108C15.4326 15.3067 14.9429 15.4047 14.4392 15.4047Z" />
</svg>
