<svg width="33" height="32" viewBox="0 0 33 32" fill="#2D2A34" xmlns="http://www.w3.org/2000/svg">
<path fill-rule="evenodd" clip-rule="evenodd" d="M16.1191 6C16.6714 6 17.1191 6.44772 17.1191 7V25C17.1191 25.5523 16.6714 26 16.1191 26C15.5669 26 15.1191 25.5523 15.1191 25V7C15.1191 6.44772 15.5669 6 16.1191 6Z" />
<path fill-rule="evenodd" clip-rule="evenodd" d="M5.11914 7C5.11914 6.44772 5.56686 6 6.11914 6H26.1191C26.6714 6 27.1191 6.44772 27.1191 7V11C27.1191 11.5523 26.6714 12 26.1191 12C25.5669 12 25.1191 11.5523 25.1191 11V8H7.11914V11C7.11914 11.5523 6.67143 12 6.11914 12C5.56686 12 5.11914 11.5523 5.11914 11V7Z" />
<path fill-rule="evenodd" clip-rule="evenodd" d="M11.1191 25C11.1191 24.4477 11.5669 24 12.1191 24H20.1191C20.6714 24 21.1191 24.4477 21.1191 25C21.1191 25.5523 20.6714 26 20.1191 26H12.1191C11.5669 26 11.1191 25.5523 11.1191 25Z" />
</svg>
