<svg width="33" height="32" viewBox="0 0 33 32" fill="#2D2A34" xmlns="http://www.w3.org/2000/svg">
<path fill-rule="evenodd" clip-rule="evenodd" d="M1.70493 7.08579C2.08 6.71071 2.58871 6.5 3.11914 6.5H19.1191C20.4452 6.5 21.717 7.02678 22.6547 7.96447C23.5924 8.90215 24.1191 10.1739 24.1191 11.5V23.5C24.1191 24.0304 23.9084 24.5391 23.5334 24.9142C23.1583 25.2893 22.6496 25.5 22.1191 25.5H6.11914C4.79306 25.5 3.52129 24.9732 2.58361 24.0355C1.64593 23.0979 1.11914 21.8261 1.11914 20.5V8.5C1.11914 7.96957 1.32985 7.46086 1.70493 7.08579ZM3.11914 8.5V20.5C3.11914 21.2956 3.43521 22.0587 3.99782 22.6213C4.56043 23.1839 5.32349 23.5 6.11914 23.5H22.1191V11.5C22.1191 10.7044 21.8031 9.94129 21.2405 9.37868C20.6779 8.81607 19.9148 8.5 19.1191 8.5L3.11914 8.5Z" />
<path fill-rule="evenodd" clip-rule="evenodd" d="M30.6212 9.13509C30.9296 9.31401 31.1193 9.64353 31.1193 10V22C31.1193 22.3565 30.9296 22.686 30.6212 22.8649C30.3129 23.0438 29.9327 23.0451 29.6232 22.8682L22.6232 18.8682C22.1437 18.5942 21.9771 17.9834 22.2511 17.5039C22.5251 17.0243 23.1359 16.8577 23.6155 17.1318L29.1193 20.2768V11.7232L23.6155 14.8682C23.1359 15.1423 22.5251 14.9757 22.2511 14.4961C21.9771 14.0166 22.1437 13.4058 22.6232 13.1318L29.6232 9.13176C29.9327 8.9549 30.3129 8.95617 30.6212 9.13509Z" />
</svg>
